# xmcd
#
# Track frame offsets:
#	150
#	18175
#	35183
#	54784
#	78007
#	96421
#	110743
#	133771
#	156480
#	178721
#	200168
#	224957
#	245797
#	264077
#	280816
#	302013
#	322191
#
# Disc length: 4534 seconds
#
# Revision: 0
# Processed by: cddbd v1.4PL0 Copyright (c) Steve Scherf et al.
# Submitted via: EasyCDDAExtractor 4.5.0.2
#
DISCID=0411b411
DTITLE=Compilation - Zouk, L'annee 99
DYEAR=1999
DGENRE=Folklore
TTITLE0=Lov' attitude/Tania St Val
TTITLE1=Que tal te fué - Kassav
TTITLE2=Natirel/ Sonia Dersion
TTITLE3=Extreme tendresse - Experience 7
TTITLE4=Bounce Baby - Kaysha
TTITLE5=Flex - O'taïm
TTITLE6=Etiw - Dédé St Prix et Jocelyne Beroard
TTITLE7=Zou - Malavoi
TTITLE8=Akiyo la o la'w kale konsa - Akiyo
TTITLE9=Saint Pié - Kali
TTITLE10=Et pourtant nou enmen - Eric Virgal et Orlane
TTITLE11=Fantasm - Wonm
TTITLE12=Chanson d'amour - Malavoi - JJ Goldmann et Edith Lefel
TTITLE13=Ban mwen lanmain - Sylvia
TTITLE14=En men mwen tout simplement - Orlane
TTITLE15=Cote mwen - Beth Séba
TTITLE16=Tort ou Raison ? - Harry Diboula
EXTD=
EXTT0=
EXTT1=
EXTT2=
EXTT3=
EXTT4=
EXTT5=
EXTT6=
EXTT7=
EXTT8=
EXTT9=
EXTT10=
EXTT11=
EXTT12=
EXTT13=
EXTT14=
EXTT15=
EXTT16=
PLAYORDER=
